{
   "accessors" : [
      {
         "bufferView" : 0,
         "byteOffset" : 0,
         "componentType" : 5123,
         "count" : 972,
         "max" : [ 639 ],
         "min" : [ 0 ],
         "name" : "buffer-0-group-0-mesh-0-indices",
         "type" : "SCALAR"
      },
      {
         "bufferView" : 2,
         "byteOffset" : 0,
         "componentType" : 5126,
         "count" : 640,
         "max" : [ 5.510791778564453, 3.426369905471802, 7.010867118835449 ],
         "min" : [ -5.562067031860352, -1.143478989601135, -2.300436973571777 ],
         "name" : "buffer-0-group-0-mesh-0-position",
         "type" : "VEC3"
      },
      {
         "bufferView" : 2,
         "byteOffset" : 7680,
         "componentType" : 5126,
         "count" : 640,
         "max" : [ 0.9998999834060669, 1, 0.9998999834060669 ],
         "min" : [ -1, -1, -1 ],
         "name" : "buffer-0-group-0-mesh-0-normal",
         "type" : "VEC3"
      },
      {
         "bufferView" : 0,
         "byteOffset" : 1944,
         "componentType" : 5123,
         "count" : 258,
         "max" : [ 169 ],
         "min" : [ 0 ],
         "name" : "buffer-0-group-1-mesh-0-indices",
         "type" : "SCALAR"
      },
      {
         "bufferView" : 2,
         "byteOffset" : 15360,
         "componentType" : 5126,
         "count" : 170,
         "max" : [ 1.466521024703979, 3.426369905471802, 6.621359825134277 ],
         "min" : [ -1.428908944129944, -1.051496982574463, -2.300436973571777 ],
         "name" : "buffer-0-group-1-mesh-0-position",
         "type" : "VEC3"
      },
      {
         "bufferView" : 2,
         "byteOffset" : 17400,
         "componentType" : 5126,
         "count" : 170,
         "max" : [ 0.9997000098228455, 0.9771000146865845, 0.5598000288009644 ],
         "min" : [ -0.9997000098228455, -0.02309999987483025, -0.8496999740600586 ],
         "name" : "buffer-0-group-1-mesh-0-normal",
         "type" : "VEC3"
      },
      {
         "bufferView" : 0,
         "byteOffset" : 2460,
         "componentType" : 5123,
         "count" : 102,
         "max" : [ 67 ],
         "min" : [ 0 ],
         "name" : "buffer-0-group-2-mesh-0-indices",
         "type" : "SCALAR"
      },
      {
         "bufferView" : 2,
         "byteOffset" : 19440,
         "componentType" : 5126,
         "count" : 68,
         "max" : [ 3.253484010696411, 1.249415040016174, 0 ],
         "min" : [ -3.300879001617432, -0.4058089852333069, -2.718148946762085 ],
         "name" : "buffer-0-group-2-mesh-0-position",
         "type" : "VEC3"
      },
      {
         "bufferView" : 2,
         "byteOffset" : 20256,
         "componentType" : 5126,
         "count" : 68,
         "max" : [ 0.8046000003814697, 0.9114000201225281, 0.9998999834060669 ],
         "min" : [ -0.8055999875068665, -0.9232000112533569, -0.4108999967575073 ],
         "name" : "buffer-0-group-2-mesh-0-normal",
         "type" : "VEC3"
      },
      {
         "bufferView" : 0,
         "byteOffset" : 2664,
         "componentType" : 5123,
         "count" : 420,
         "max" : [ 237 ],
         "min" : [ 0 ],
         "name" : "buffer-0-group-3-mesh-0-indices",
         "type" : "SCALAR"
      },
      {
         "bufferView" : 2,
         "byteOffset" : 21072,
         "componentType" : 5126,
         "count" : 238,
         "max" : [ 1.454892039299011, 1.209736943244934, 0.937283992767334 ],
         "min" : [ -1.409399032592773, -1.240280032157898, -2.435309886932373 ],
         "name" : "buffer-0-group-3-mesh-0-position",
         "type" : "VEC3"
      },
      {
         "bufferView" : 2,
         "byteOffset" : 23928,
         "componentType" : 5126,
         "count" : 238,
         "max" : [ 0.9997000098228455, 0.8224999904632568, 0.9581999778747559 ],
         "min" : [ -0.9997000098228455, -0.9578999876976013, -0.9972000122070312 ],
         "name" : "buffer-0-group-3-mesh-0-normal",
         "type" : "VEC3"
      }
   ],
   "asset" : {
      "generator" : "Obj2GltfConverter",
      "version" : "2.0"
   },
   "bufferViews" : [
      {
         "buffer" : 0,
         "byteLength" : 3504,
         "byteOffset" : 0,
         "byteStride" : 0,
         "name" : "buffer-0-bufferview-ushort",
         "target" : 34963
      },
      {
         "buffer" : 0,
         "byteLength" : 1,
         "byteOffset" : 0,
         "name" : "buffer-0-bufferview-vec2"
      },
      {
         "buffer" : 0,
         "byteLength" : 26784,
         "byteOffset" : 3504,
         "byteStride" : 12,
         "name" : "buffer-0-bufferview-vec3",
         "target" : 34962
      },
      {
         "buffer" : 0,
         "byteLength" : 1,
         "byteOffset" : 0,
         "name" : "buffer-0-bufferview-vec4"
      }
   ],
   "buffers" : [
      {
         "byteLength" : 30288,
         "name" : "buffer-0",
         "uri" : "small-airplane-v3.bin"
      }
   ],
   "materials" : [
      {
         "alphaMode" : "OPAQUE",
         "doubleSided" : true,
         "name" : "White",
         "pbrMetallicRoughness" : {
            "baseColorFactor" : [ 0.64, 0.64, 0.64, 1 ],
            "metallicFactor" : 0,
            "roughnessFactor" : 0.7448017359246658
         }
      },
      {
         "alphaMode" : "OPAQUE",
         "doubleSided" : true,
         "name" : "Red",
         "pbrMetallicRoughness" : {
            "baseColorFactor" : [ 0.651232, 0.033053, 0.016578, 1 ],
            "metallicFactor" : 0,
            "roughnessFactor" : 0.7448017359246658
         }
      },
      {
         "alphaMode" : "OPAQUE",
         "doubleSided" : true,
         "name" : "Gray",
         "pbrMetallicRoughness" : {
            "baseColorFactor" : [ 0.207838, 0.207838, 0.207838, 1 ],
            "metallicFactor" : 0,
            "roughnessFactor" : 0.7448017359246658
         }
      },
      {
         "alphaMode" : "OPAQUE",
         "doubleSided" : true,
         "name" : "Black",
         "pbrMetallicRoughness" : {
            "baseColorFactor" : [ 0.033622, 0.033622, 0.033622, 1 ],
            "metallicFactor" : 0,
            "roughnessFactor" : 0.7448017359246658
         }
      }
   ],
   "meshes" : [
      {
         "name" : "buffer-0-mesh-0",
         "primitives" : [
            {
               "attributes" : {
                  "NORMAL" : 2,
                  "POSITION" : 1
               },
               "indices" : 0,
               "material" : 0,
               "mode" : 4
            },
            {
               "attributes" : {
                  "NORMAL" : 5,
                  "POSITION" : 4
               },
               "indices" : 3,
               "material" : 1,
               "mode" : 4
            },
            {
               "attributes" : {
                  "NORMAL" : 8,
                  "POSITION" : 7
               },
               "indices" : 6,
               "material" : 2,
               "mode" : 4
            },
            {
               "attributes" : {
                  "NORMAL" : 11,
                  "POSITION" : 10
               },
               "indices" : 9,
               "material" : 3,
               "mode" : 4
            }
         ]
      }
   ],
   "nodes" : [
      {
         "mesh" : 0,
         "name" : "node-0"
      }
   ],
   "scenes" : [
      {
         "name" : "scene-0",
         "nodes" : [ 0 ]
      }
   ]
}
